<?xml version="1.0" standalone="no"?>
<!DOCTYPE svg PUBLIC "-//W3C//DTD SVG 20010904//EN"
 "http://www.w3.org/TR/2001/REC-SVG-20010904/DTD/svg10.dtd">
<svg version="1.0" xmlns="http://www.w3.org/2000/svg"
 width="521.000000pt" height="521.000000pt" viewBox="0 0 521.000000 521.000000"
 preserveAspectRatio="xMidYMid meet">
<metadata>
Created by potrace 1.14, written by Peter Selinger 2001-2017
</metadata>
<g transform="translate(0.000000,521.000000) scale(0.100000,-0.100000)"
fill="#000000" stroke="none">
<path d="M3344 5168 c-14 -24 -33 -54 -43 -68 -20 -29 -797 -1274 -826 -1324
-11 -18 -165 -265 -342 -548 -177 -283 -323 -520 -325 -528 -2 -12 42 -14 279
-15 155 0 284 -3 287 -6 3 -3 -33 -190 -80 -415 -46 -225 -154 -742 -239
-1149 -85 -407 -172 -825 -193 -928 -22 -104 -36 -185 -31 -180 4 4 204 323
444 708 240 385 447 716 460 735 45 68 657 1054 662 1066 3 8 -70 11 -282 11
-157 0 -288 3 -291 5 -3 3 2 36 10 74 16 71 170 808 396 1899 72 347 135 647
139 668 5 20 7 37 5 37 -2 0 -15 -19 -30 -42z"/>
</g>
</svg>
